<?xml version="1.0" encoding="utf-8"?>
<!-- Generator: Adobe Illustrator 27.5.0, SVG Export Plug-In . SVG Version: 6.00 Build 0)  -->
<svg version="1.1" id="katman_1" xmlns="http://www.w3.org/2000/svg" xmlns:xlink="http://www.w3.org/1999/xlink" x="0px" y="0px"
	 viewBox="0 0 841.89 595.28" style="enable-background:new 0 0 841.89 595.28;" xml:space="preserve">
<style type="text/css">
	.st0{fill:#FFFFFF;}
	.st1{fill:#739DD3;}
	.st2{fill:#FBB82B;}
	.st3{fill:#542680;}
</style>
<g>
	<path class="st0" d="M776.85,315.95h-54.46c25.62-44.07,48.19-125.75,48.19-125.75h-0.9H608.46
		c-37.8-68.07-110.35-114.11-193.64-114.11S258.97,122.13,221.17,190.2h-34.39l-20.96,39.95h26.51l-81.69,158l-0.36,0.72H85.74
		l-10.39,17.73l-10.75,20.6h26.33h144.38c40.31,55.53,105.51,91.54,179.31,91.54c70.04,0,132.38-32.6,173.04-83.3
		c7.34,6.45,14.87,10.75,22.57,13.79l0,0h0.18c54.46,17.91,105.69-23.29,119.12-35.11c2.15-1.97,3.4-3.22,3.4-3.22l0,0
		C777.92,367.36,776.85,315.95,776.85,315.95z"/>
	<path class="st0" d="M430.4,173.54c-0.54-0.9-0.9-1.79-1.43-2.51C429.5,172.11,430.04,172.82,430.4,173.54"/>
	<g>
		<g>
			<path class="st1" d="M232.81,394.23c34.57,65.21,103.18,109.45,182,109.45s147.43-44.43,182-109.45L232.81,394.23L232.81,394.23z
				"/>
			<g>
				<g>
					<path class="st2" d="M620.82,297.5c0-113.75-92.25-206.01-206.01-206.01S208.81,183.75,208.81,297.5
						c0,34.93,8.78,67.71,24,96.55h364C612.22,365.39,620.82,332.43,620.82,297.5"/>
					<path class="st0" d="M310.38,137.35c4.3,0.72,8.6,1.61,13.26,2.51s9.14,2.33,13.79,3.58c4.66,1.43,9.14,3.05,13.61,5.19
						c4.48,1.79,8.6,4.3,12.54,6.81c3.76,2.69,7.52,5.37,10.57,8.6c0.18,0.18,0.54,0.54,0.72,0.72c-0.36,0.18-0.54,0.36-0.9,0.36
						c-4.3,2.15-8.6,4.48-12.9,6.81c-4.12,2.33-8.06,5.02-12,7.34c-3.94,2.51-7.52,5.19-11.29,7.7c-3.58,2.51-6.99,5.37-10.39,8.06
						c-6.63,5.37-12.54,10.75-17.73,16.12c-5.19,5.19-9.67,10.39-13.61,14.87c-3.76,4.66-6.99,8.78-9.49,12.36
						c-2.51,3.58-4.3,6.45-5.37,8.42c-1.25,1.97-1.79,3.05-1.79,3.05s0.72-1.07,2.15-2.87c1.43-1.79,3.58-4.3,6.45-7.52
						c2.87-3.22,6.45-6.99,10.57-11.11c4.12-4.12,9.14-8.78,14.51-13.61c5.55-4.84,11.64-9.67,18.27-14.69
						c6.63-4.84,13.97-9.67,21.68-14.51c3.94-2.15,7.88-4.66,12-6.81s8.24-4.3,12.54-6.27c0.9-0.36,1.97-0.9,2.87-1.25
						c0.54,0.72,1.07,1.61,1.61,2.33c1.25,1.61,1.97,3.4,3.05,5.02c1.07,1.61,1.61,3.4,2.33,5.02c0.36,0.9,0.72,1.61,1.07,2.33
						c0.18,0.9,0.54,1.61,0.72,2.33c0.54,1.61,1.07,3.05,1.43,4.48c0.54,2.87,1.43,5.37,1.61,7.52c0.72,4.12,1.07,6.63,1.07,6.63
						s0.36-2.51,0.54-6.81c0.18-2.15,0-4.84-0.18-7.88c-0.18-1.43-0.36-3.05-0.72-4.84c-0.18-0.9-0.36-1.79-0.36-2.69
						c-0.18-0.9-0.54-1.79-0.72-2.69c-0.9-3.76-2.33-7.7-4.48-11.64c-0.36-0.72-0.72-1.43-1.07-2.15c1.25-0.54,2.69-1.25,3.94-1.79
						c4.48-1.61,8.96-3.4,13.44-5.02l1.61-0.72l0.72-0.36l0.9-0.36l3.4-1.07c2.33-0.72,4.66-1.43,6.81-2.15
						c1.61-0.54,3.05-0.9,4.66-1.25c1.61,2.33,3.05,4.84,4.66,7.17c2.15,3.94,4.48,7.7,6.45,11.11c1.07,1.79,1.97,3.58,2.87,5.19
						c0.9,1.79,1.79,3.4,2.69,5.02c1.61,3.22,3.4,6.09,4.66,8.78c1.25,2.69,2.51,5.02,3.4,6.81c1.97,3.76,3.05,5.91,3.05,5.91
						s-0.54-2.33-1.43-6.45c-0.54-1.97-1.07-4.48-1.97-7.34c-0.72-2.87-1.79-6.09-3.05-9.49c-1.25-3.4-2.51-7.17-4.3-10.93
						c-1.79-3.76-3.58-7.88-5.73-12c-1.07-1.79-2.15-3.76-3.22-5.55c0.36,0,0.72-0.18,0.9-0.18c9.32-1.97,18.45-3.58,27.41-4.66
						c2.51-0.36,5.02-0.54,7.34-0.9c1.25,2.33,2.69,4.66,4.3,6.99c3.05,4.48,6.81,8.42,10.57,12.36c1.97,1.97,4.12,3.58,6.09,5.55
						c1.97,1.79,4.3,3.4,6.27,5.02c1.97,1.79,4.3,3.05,6.45,4.66c2.15,1.43,4.3,2.87,6.45,4.12c4.3,2.69,8.6,4.84,12.72,6.99
						c4.12,2.15,8.24,3.76,11.82,5.55c3.76,1.61,7.17,2.87,10.21,4.12c3.05,1.25,5.73,1.97,8.06,2.69c4.48,1.43,7.17,2.15,7.17,2.15
						s-2.33-1.43-6.45-3.76c-1.97-1.25-4.48-2.51-7.34-4.12c-2.87-1.61-5.91-3.4-9.32-5.37c-3.4-2.15-6.99-4.3-10.93-6.63
						c-3.76-2.51-7.7-5.02-11.82-7.7c-4.12-2.69-8.06-5.91-12-8.96c-1.97-1.61-3.94-3.22-5.91-4.84c-1.79-1.79-3.76-3.4-5.55-5.19
						c-3.58-3.58-6.99-7.17-9.85-11.11c-0.72-1.07-1.61-2.15-2.33-3.22c3.22-0.36,6.45-0.54,9.67-0.72
						c8.24-0.36,16.12-0.72,23.47-0.72c3.58,0,7.17,0,10.39,0c3.4,0,6.45,0,9.49,0.18c5.91,0.18,11.11,0.36,15.41,0.72
						c7.17,0.54,11.64,0.72,13.08,0.9l0,0c-0.54-0.18-1.43-0.36-2.87-0.54c-2.33-0.36-5.55-1.25-9.85-1.79
						c-4.3-0.72-9.32-1.61-15.23-2.33s-12.72-1.43-20.06-1.97c-7.34-0.54-15.41-0.72-23.82-0.72c-4.48,0-8.96,0.18-13.61,0.36
						c-0.36-0.72-0.72-1.43-1.07-1.97c-1.97-4.12-3.22-8.24-4.12-12.36c-0.72-4.12-1.07-8.06-0.72-11.64
						c0.18-3.58,0.9-6.99,1.61-10.03c0.72-2.33,1.43-4.48,2.15-6.27c-0.72-0.18-1.25-0.36-1.97-0.54
						c-2.51,3.76-5.37,9.14-6.63,16.12c-0.9,3.94-1.25,8.42-0.72,13.08c0.54,4.66,1.43,9.49,3.4,14.15
						c-1.61,0.18-3.22,0.18-5.02,0.36c-9.14,0.9-18.81,1.97-28.3,4.12c-1.25,0.18-2.51,0.54-3.58,0.9
						c-2.51-3.76-5.19-7.52-7.7-11.29c-3.05-3.76-6.09-7.88-9.32-11.46c-3.22-3.58-6.63-7.17-10.03-10.39
						c-1.79-1.61-3.22-3.22-5.02-4.66c-1.79-1.43-3.4-2.87-5.02-4.3c-3.22-2.69-6.63-5.19-9.67-7.34c-1.25-0.9-2.33-1.61-3.58-2.33
						c-1.79,0.36-3.4,0.72-5.19,1.07c1.79,1.43,3.58,3.22,5.55,5.02c1.43,1.25,2.69,2.51,4.12,3.94c1.43,1.43,2.87,2.69,4.3,4.12
						c2.87,2.87,5.91,6.09,8.96,9.49c3.22,3.22,5.91,6.99,9.14,10.39c1.61,1.79,3.05,3.76,4.48,5.55c1.43,1.79,2.87,3.76,4.48,5.73
						c1.97,2.87,4.12,5.73,6.09,8.6c-0.72,0.18-1.43,0.36-2.15,0.54c-2.51,0.72-4.84,1.25-7.17,2.15l-3.4,1.07l-0.9,0.36
						c-0.54,0.18-0.72,0.18-0.9,0.36l-1.79,0.72c-4.66,1.79-9.32,3.58-13.79,5.37c-1.79,0.9-3.58,1.61-5.55,2.51
						c-0.72-0.9-1.43-1.61-2.15-2.51c-3.22-3.76-7.17-7.17-11.29-10.21c-4.3-2.87-8.96-5.55-13.79-7.7
						c-4.84-2.15-9.85-3.76-14.87-5.19c-2.51-0.72-5.02-1.43-7.52-1.79c-2.51-0.54-4.84-0.9-7.34-1.25
						c-4.84-0.9-9.49-1.25-13.97-1.43c-4.48-0.18-8.6-0.36-12.54-0.18c-2.15,0-4.12,0.18-5.91,0.18c-1.61,1.07-3.05,2.33-4.48,3.58
						c3.05,0.18,6.45,0.54,10.21,1.07C301.96,136.28,306.08,136.82,310.38,137.35"/>
				</g>
				<g>
					<path class="st2" d="M349.61,411.61c6.45,0.18,13.44,0.36,20.6,0.54c7.17,0,14.51,0.36,22.03,0.36c7.52,0,15.05,0,22.57,0.18
						c7.52,0,15.23,0,22.57-0.18c7.52,0,14.87-0.18,22.03-0.36c14.15-0.18,27.59-0.54,38.87-1.07c22.75-0.9,37.98-1.97,37.98-1.97
						s-15.23-1.07-37.98-1.97c-11.46-0.36-24.72-0.9-38.87-1.07c-7.17,0-14.51-0.36-22.03-0.36c-7.52,0-15.05,0-22.57-0.18
						c-7.52,0-15.23,0-22.57,0.18c-7.52,0-14.87,0.18-22.03,0.36c-7.17,0-13.97,0.36-20.6,0.54c-6.45,0.18-12.72,0.36-18.45,0.54
						c-22.75,0.9-37.98,1.97-37.98,1.97s15.23,1.07,37.98,1.97C336.89,411.25,343.16,411.43,349.61,411.61"/>
					<path class="st2" d="M447.42,425.22c-5.19,0-10.57-0.18-15.94-0.18c-5.37,0-10.93,0-16.48-0.18c-5.55,0-11.11,0-16.48,0.18
						c-5.37,0-10.75,0.18-15.94,0.36c-5.19,0-10.21,0.36-15.05,0.36c-4.84,0.18-9.32,0.36-13.44,0.54
						c-16.66,0.72-27.77,1.79-27.77,1.79s11.11,1.07,27.77,1.79c4.12,0.18,8.6,0.36,13.44,0.54c4.84,0.18,9.85,0.36,15.05,0.36
						c5.19,0,10.57,0.18,15.94,0.36c5.37,0,10.93,0,16.48,0.18c5.55,0,11.11,0,16.48-0.18c5.37,0,10.75-0.18,15.94-0.18
						c10.39-0.18,20.06-0.54,28.48-0.9c16.66-0.72,27.77-1.79,27.77-1.79s-11.11-1.07-27.77-1.79
						C467.48,425.76,457.81,425.4,447.42,425.22"/>
					<path class="st2" d="M434.88,445.29c-3.22,0-6.45-0.18-9.85-0.18c-3.4,0-6.81,0-10.21-0.18c-3.4,0-6.81,0-10.21,0.18
						c-3.4,0-6.63,0.18-9.85,0.18c-6.45,0.18-12.36,0.54-17.56,0.9c-10.21,0.72-17.02,1.61-17.02,1.61s6.81,0.9,17.02,1.61
						c5.19,0.36,11.11,0.72,17.56,0.9c3.22,0,6.45,0.18,9.85,0.18c3.4,0,6.81,0,10.21,0.18c3.4,0,6.81,0,10.21-0.18
						c3.4,0,6.63-0.18,9.85-0.18c6.45-0.18,12.36-0.54,17.56-0.9c10.21-0.72,17.02-1.61,17.02-1.61s-6.81-0.9-17.02-1.61
						C447.24,445.82,441.33,445.47,434.88,445.29"/>
					<path class="st2" d="M422.34,462.66c-2.33-0.18-5.02-0.36-7.52-0.36s-5.02,0.18-7.52,0.36c-2.33,0.18-4.66,0.36-6.45,0.72
						c-3.76,0.54-6.45,1.25-6.45,1.25s2.51,0.72,6.45,1.25c1.97,0.36,4.12,0.54,6.45,0.72s5.02,0.36,7.52,0.36s5.02-0.18,7.52-0.36
						c2.33-0.18,4.66-0.36,6.45-0.72c3.76-0.54,6.45-1.25,6.45-1.25s-2.51-0.72-6.45-1.25
						C426.82,463.02,424.67,462.84,422.34,462.66"/>
				</g>
			</g>
		</g>
		<g>
			<g>
				<g>
					<path class="st3" d="M341.37,214.02c2.15,0,4.66,0.36,7.52,1.07c0.36,0.18,0.72,0.18,0.9,0.18s0.9-0.18,1.97-0.36
						c0.36,0,0.72-0.18,1.07-0.18c1.43,0,2.33,0.9,3.05,2.51c0.72,1.61,0.72,3.22,0,4.66c-0.36,0.9-1.07,1.61-2.15,2.15
						c-0.9,0.54-1.97,0.9-2.87,0.9c-0.9,0-1.43-0.18-1.79-0.36c-0.36-0.18-1.07-0.9-2.33-2.15c-1.61-1.61-3.58-2.51-5.91-2.51
						c-1.07,0-2.15,0.18-3.05,0.54c-0.9,0.36-1.43,0.9-1.79,1.61c-0.72,1.25,0.36,2.33,3.22,3.05c3.76,0.9,6.09,1.61,6.99,1.97
						c4.3,1.97,5.55,4.66,3.76,8.24c-1.61,3.22-4.66,5.91-9.14,7.88c-4.66,2.15-9.85,3.22-15.58,3.22c-2.51,0-5.19-0.18-7.88-0.72
						c-2.69-0.54-4.48-1.07-5.37-1.61c-0.72-0.54-1.07-1.61-1.07-3.22c0-1.61,0.36-3.22,1.07-4.84c0.36-0.72,0.9-1.25,1.43-1.61
						c0.72-0.54,1.43-0.72,2.33-0.72c0.72,0,1.43,0.36,1.79,0.9c0.18,0.36,0.72,1.43,1.43,3.22c0.36,0.9,1.25,1.61,2.51,2.15
						c1.43,0.54,2.87,0.9,4.66,0.9c1.43,0,2.87-0.18,3.94-0.72c1.07-0.36,1.79-0.9,2.15-1.61c0.36-0.54,0.18-1.07-0.36-1.61
						c-0.54-0.36-1.43-0.9-2.87-1.25c-2.51-0.72-4.48-1.25-5.73-1.79s-2.33-1.25-3.22-2.15c-2.15-2.15-2.51-4.48-1.25-7.17
						c0.72-1.25,1.61-2.69,3.22-3.94c1.43-1.25,3.22-2.33,5.02-3.22C331.88,215.1,336.53,214.02,341.37,214.02"/>
					<path class="st3" d="M389.38,214.02c5.19,0,9.14,1.07,12,3.4c1.97,1.61,3.05,3.58,3.58,5.91c0.36,2.51,0,4.84-1.07,7.34
						c-1.79,3.58-4.84,6.81-9.32,9.67c-3.76,2.33-8.06,4.12-12.9,5.19c-2.87,0.72-5.73,0.9-8.42,0.9c-3.58,0-6.63-0.54-9.32-1.61
						c-3.22-1.25-5.19-3.4-6.09-5.91c-0.9-2.51-0.54-5.37,0.9-8.6c1.79-3.58,4.66-6.81,8.78-9.49c3.58-2.51,7.7-4.3,12.36-5.37
						C382.75,214.38,386.15,214.02,389.38,214.02 M383.47,220.65c-1.61,0-3.4,0.54-4.84,1.79c-1.25,0.9-1.97,1.79-2.69,3.05
						c-0.9,1.79-1.25,3.76-1.43,5.91c-0.18,2.33,0,4.3,0.54,6.09c0.18,0.72,0.72,1.25,1.43,1.79c0.72,0.36,1.61,0.72,2.51,0.72
						c1.61,0,3.05-0.36,4.3-1.25c1.43-0.9,2.33-1.97,3.05-3.4c0.9-1.79,1.43-3.76,1.61-5.91c0.18-2.15,0.18-3.94-0.36-5.37
						c-0.36-0.9-0.9-1.61-1.61-2.15C385.26,220.83,384.36,220.65,383.47,220.65"/>
					<path class="st3" d="M456.2,226.03l-2.69,5.55c-1.61,3.4-3.05,5.73-4.48,7.17c-2.87,2.87-6.99,5.02-12.54,6.45
						c-3.4,0.9-6.81,1.25-10.57,1.25c-6.45,0-11.11-1.25-13.79-3.4c-1.43-1.07-1.97-2.51-1.97-3.94c0-1.43,0.72-3.76,1.97-6.45
						c0.54-1.07,1.43-2.87,2.87-5.55c0.9-1.79,1.61-3.05,1.79-3.58c0.54-1.25,0.9-2.15,0.9-2.69c0-0.54-0.36-0.9-1.07-1.43
						c-1.07-0.72-1.25-1.43-0.9-2.15c0.36-0.54,0.9-1.07,1.79-1.61c0.9-0.54,1.97-0.72,3.05-0.9c2.33-0.36,5.02-0.54,8.06-0.54
						c3.4,0,6.09,0.18,8.06,0.54c1.97,0.36,2.69,1.25,1.97,2.51c-0.36,0.72-0.9,1.07-1.61,1.61c-0.18,0.18-0.9,0.36-2.15,0.72
						c-0.72,0.18-1.43,0.54-1.79,1.07c-0.54,0.54-1.07,1.43-1.61,2.87c-0.72,1.25-2.15,4.12-4.3,8.6c-1.43,2.69-1.43,4.66,0,5.91
						c1.07,1.07,2.87,1.61,5.37,1.61c1.61,0,3.22-0.18,4.66-0.72c1.61-0.36,2.87-1.07,3.94-1.79c0.9-0.54,1.61-1.25,2.15-1.97
						c0.54-0.72,1.07-1.79,1.79-3.05l2.51-5.02c1.79-3.76,2.69-6.09,2.87-6.81c0.18-0.72-0.36-1.25-1.25-1.61s-1.43-0.72-1.61-0.9
						c-0.18-0.36-0.18-0.72,0-1.07c0.36-0.9,1.43-1.61,3.05-1.97c1.61-0.36,4.12-0.54,7.34-0.54c3.05,0,5.37,0.18,6.45,0.54
						c1.25,0.36,1.61,1.07,1.07,1.97c-0.18,0.36-0.54,0.72-0.9,0.9c-0.36,0.18-1.07,0.54-2.33,0.9c-1.25,0.54-2.15,0.9-2.51,1.43
						C458.88,220.83,457.81,222.62,456.2,226.03"/>
					<path class="st3" d="M484.14,214.74h15.94c1.79,0,3.4-0.18,5.02-0.54c0.72-0.18,1.25-0.18,1.61-0.18c1.61,0,2.87,0.9,3.4,2.69
						c0.72,1.79,0.54,3.76-0.36,5.55c-0.72,1.25-1.61,2.33-3.05,2.87c-1.07,0.54-2.15,0.72-3.22,0.72c-1.07,0-1.97-0.18-2.51-0.72
						c-0.54-0.36-1.07-1.25-1.25-2.15c-0.18-0.9-0.36-1.61-0.72-1.79c-0.18-0.36-0.72-0.36-1.25-0.36c-0.72,0-1.43,0.18-1.97,0.72
						c-0.54,0.54-1.07,1.25-1.61,2.33l-6.09,12.72c-0.72,1.25-0.9,2.33-0.9,2.87c0,0.54,0.54,1.07,1.43,1.43
						c0.9,0.36,1.43,0.72,1.79,1.07c0.18,0.36,0.18,0.72,0,1.25c-0.54,1.07-1.97,1.97-4.12,2.51c-2.15,0.54-5.37,0.72-9.49,0.72
						c-5.02,0-8.6-0.36-10.75-0.9c-1.79-0.54-2.33-1.43-1.79-2.51c0.36-0.54,0.9-1.07,1.79-1.43c0.18,0,1.07-0.18,2.33-0.54
						c0.9-0.18,1.61-0.54,1.97-0.9c0.54-0.54,1.25-1.43,1.97-2.69c0.72-1.25,1.79-3.05,3.22-5.73c1.43-2.69,2.69-5.02,3.58-6.99
						c0.72-1.43,1.07-2.33,1.07-2.87c0-0.54-0.36-0.9-0.9-0.9c-0.72,0-1.79,0.36-2.87,1.25c-2.15,1.61-3.76,2.51-4.84,3.05
						c-1.25,0.54-2.51,0.9-3.4,0.9c-1.07,0-1.79-0.36-2.33-0.9c-0.36-0.54-0.36-1.43,0-2.33c0.54-0.9,1.25-1.97,2.33-3.05
						c1.07-1.07,2.33-2.15,3.76-3.22c2.33-1.61,4.12-2.33,5.73-2.33c0.36,0,0.9,0,1.25,0.18c1.07,0.18,1.79,0.36,2.51,0.36
						C482.35,214.56,483.24,214.74,484.14,214.74"/>
					<path class="st3" d="M531.07,214.2c6.27,0,8.96,0.9,8.06,2.87c-0.18,0.54-0.72,0.9-1.07,1.25c-0.54,0.36-1.25,0.72-2.33,1.07
						c-0.9,0.36-1.61,0.9-2.15,1.43c-0.54,0.54-1.25,1.79-2.15,3.58c-0.54,1.07-0.54,1.79-0.18,1.97c0.18,0.18,0.72,0.18,1.25,0.36
						c0.54,0,1.97,0,4.3,0c2.15,0,3.4,0,3.94-0.18c0.54-0.18,1.07-0.54,1.43-1.25c0.9-1.97,1.61-3.4,1.61-4.12
						c0.18-0.72,0-1.25-0.72-1.61c-0.72-0.36-1.07-0.72-1.25-0.9c-0.18-0.18-0.18-0.54,0.18-1.07c0.36-0.54,0.9-1.25,1.79-1.61
						c0.9-0.54,1.79-0.9,2.87-1.07c2.33-0.36,5.02-0.54,8.24-0.54c3.76,0,6.27,0.18,7.88,0.72c1.43,0.54,1.97,1.25,1.43,2.33
						c-0.36,0.9-1.43,1.61-2.87,1.97c-0.9,0.36-1.61,0.54-1.97,0.72c-0.36,0.18-0.72,0.72-1.25,1.43c-0.18,0.36-1.25,2.15-2.69,5.02
						c-1.61,3.05-2.87,5.37-3.58,7.17c-1.43,3.05-2.33,5.02-2.33,5.91c0,0.54,0,0.72,0.18,0.9c0.18,0.18,0.54,0.54,1.43,0.9
						c0.54,0.36,0.72,0.72,0.36,1.43c-0.54,1.07-1.79,1.97-3.94,2.51c-2.15,0.54-5.19,0.72-9.32,0.72c-3.58,0-6.09-0.18-7.52-0.72
						c-1.25-0.54-1.79-1.25-1.25-2.33c0.36-0.9,1.43-1.61,2.69-1.97c0.72-0.18,1.25-0.54,1.61-0.72c0.36-0.18,0.72-0.72,1.25-1.43
						c0.9-1.25,1.97-2.87,2.87-4.66c0.54-0.9,0.54-1.61,0.36-1.79c-0.36-0.18-1.25-0.36-2.69-0.36c-3.58,0-5.91,0.18-7.17,0.54
						c-0.54,0.18-0.9,0.54-1.25,1.07c-0.54,0.72-0.9,1.61-1.43,2.69c-0.9,1.79-1.07,3.05-0.9,3.76c0.18,0.18,0.54,0.54,1.07,0.9
						c0.72,0.36,0.9,0.9,0.36,1.79c-0.54,1.07-1.97,1.79-4.12,2.51c-2.15,0.54-5.19,0.9-8.78,0.9c-3.22,0-5.91-0.18-7.7-0.72
						c-0.72-0.18-1.43-0.54-1.61-0.9c-0.36-0.36-0.36-0.9-0.18-1.43c0.18-0.54,0.54-0.9,1.07-1.25s1.25-0.54,2.69-1.07
						c0.72-0.18,1.25-0.54,1.61-0.9c0.36-0.36,0.9-0.9,1.43-1.61c1.07-1.79,2.51-4.12,3.76-6.99c0.18-0.54,0.54-1.25,0.9-1.97
						c1.61-3.58,2.69-5.73,2.87-6.27c0.72-1.25,0.9-2.15,0.9-2.51c-0.18-0.36-0.72-0.9-1.79-1.43c-0.72-0.36-0.9-0.72-0.72-1.43
						c0.72-1.61,3.22-2.69,7.52-3.22C526.24,214.38,528.57,214.2,531.07,214.2"/>
				</g>
				<g>
					<path class="st3" d="M590.55,245.73h-4.12c-2.87,0-5.02,0-6.27,0.18c-1.25,0-2.15,0.18-2.51,0.18c-1.25,0-2.15-0.18-2.69-0.72
						c-0.54-0.54-0.54-1.07-0.18-1.61c0.18-0.36,0.54-0.72,0.9-1.07c0.36-0.18,1.25-0.54,2.51-1.07c0.72-0.36,1.43-0.72,1.97-1.43
						c0.54-0.72,1.43-1.97,2.69-4.12c1.97-3.22,4.12-7.34,6.45-12.18c0.9-1.79,1.25-3.05,1.25-3.58c0-0.54-0.54-1.07-1.43-1.43
						c-1.07-0.36-1.43-1.07-1.07-1.79s1.07-1.25,1.97-1.61c1.07-0.36,2.15-0.72,3.4-0.72c0.72,0,1.61,0,2.69,0
						c1.79,0,3.58,0.18,5.73,0.18c1.43,0,4.48,0,8.96-0.18c1.43,0,2.69,0,3.76,0c2.69,0,4.84,0.18,6.27,0.54s2.69,0.9,3.4,1.61
						c1.43,1.25,1.61,2.87,0.54,5.02c-0.54,1.07-1.25,2.15-2.33,3.05c-1.07,1.07-2.33,1.79-3.58,2.33c-0.9,0.36-1.43,0.9-1.61,1.07
						c-0.18,0.36,0,0.72,0.9,0.9c1.43,0.54,2.51,1.43,3.22,2.51c0.72,1.25,0.72,2.69-0.18,4.66c-1.07,2.15-3.05,4.12-6.09,5.91
						c-3.94,2.33-8.78,3.58-14.15,3.58c-0.72,0-2.51,0-5.37-0.18C592.88,245.91,591.26,245.73,590.55,245.73 M598.25,234.09
						l-1.07,2.15c-0.9,1.97-1.43,3.22-1.43,3.94c0,0.72,0.72,0.9,1.79,0.9c3.05,0,5.19-1.43,6.63-4.12c1.61-3.4,0.72-5.02-2.69-5.02
						c-0.9,0-1.61,0.18-1.97,0.36C599.15,232.83,598.61,233.37,598.25,234.09 M604.7,221.01l-2.33,4.66
						c-0.36,0.72-0.54,1.25-0.36,1.61c0.18,0.36,0.54,0.54,1.07,0.54c1.43,0,2.69-0.36,3.76-1.07c1.07-0.72,1.97-1.79,2.69-3.22
						c0.72-1.43,0.9-2.51,0.54-3.4c-0.36-0.72-1.25-1.25-2.51-1.25c-0.72,0-1.25,0.18-1.61,0.36
						C605.41,219.76,605.06,220.29,604.7,221.01"/>
					<path class="st3" d="M668.11,229.97l1.25,9.32c0.18,0.9,0.36,1.43,0.54,1.61c0.18,0.36,0.72,0.36,1.43,0.54
						c1.43,0.18,1.79,0.72,1.43,1.61c-0.54,1.07-1.79,1.97-3.76,2.33c-1.97,0.54-5.02,0.72-9.14,0.72c-4.48,0-7.88-0.18-9.85-0.36
						c-0.9-0.18-1.61-0.36-1.97-0.9c-0.36-0.36-0.36-0.9-0.18-1.43s0.54-0.9,0.9-1.07c0.36-0.18,1.07-0.54,2.15-0.72
						c1.07-0.18,1.79-0.72,1.97-1.25c0.54-1.07,0-1.61-1.61-1.79c-1.61-0.18-4.12-0.36-7.34-0.36c-2.69,0-4.3,0.18-5.02,0.36
						c-0.36,0.18-0.9,0.36-1.25,0.9c-0.36,0.36-0.72,0.72-0.9,1.07c-0.18,0.36-0.18,0.54,0,0.72c0.18,0.18,0.54,0.18,1.43,0.54
						c1.07,0.36,1.43,0.9,1.07,1.61c-0.9,1.79-4.12,2.69-10.03,2.69c-3.22,0-5.55-0.18-6.99-0.54c-1.25-0.36-1.61-1.07-1.07-2.15
						c0.18-0.54,0.54-0.9,1.07-1.07c0.36-0.18,1.07-0.54,1.97-0.72c1.43-0.36,2.69-0.9,3.76-1.43c0.9-0.72,2.69-1.97,4.84-4.12
						l7.7-6.99c2.87-2.51,4.84-4.48,5.91-5.73c1.07-1.25,1.97-2.51,2.69-3.76c0.72-1.25,1.25-2.15,1.61-2.69
						c0.36-0.54,1.07-1.07,1.97-1.43c1.97-1.07,3.94-1.61,6.09-1.61c1.97,0,3.76,0.54,5.02,1.79
						C665.43,217.25,666.86,222.08,668.11,229.97 M645.54,232.83h5.91c1.07,0,1.79-0.18,1.97-0.54c0.18-0.54,0-1.79-0.54-3.76
						c-0.18-0.9-0.54-1.43-0.72-1.79c-0.18-0.36-0.54-0.54-0.9-0.54c-0.72,0-1.61,0.54-2.51,1.61c-0.18,0.18-0.72,0.72-1.61,1.61
						c-1.61,1.61-2.51,2.51-2.69,2.87C644.29,232.65,644.65,232.83,645.54,232.83"/>
					<path class="st3" d="M699.1,214.2c3.94,0,6.99,0.18,8.78,0.54c0.9,0.18,1.43,0.36,1.97,0.72c0.36,0.36,0.36,0.9,0.18,1.43
						c-0.18,0.36-0.54,0.72-1.25,1.25c-0.9,0.54-1.43,1.07-1.61,1.43c-0.18,0.54-0.18,1.43,0.54,2.69c0.36,0.72,0.9,1.07,1.61,1.07
						c0.36,0,0.9-0.18,1.43-0.36c0.54-0.18,1.25-0.72,2.15-1.25c1.07-0.72,1.79-1.25,1.97-1.79c0.18-0.36,0.18-0.54,0.18-0.54
						c0-0.18-0.18-0.54-0.54-0.9c-0.18-0.36-0.18-0.9,0-1.43c0.9-1.79,4.3-2.51,10.57-2.51c3.4,0,5.73,0.18,6.63,0.36
						c0.54,0.18,1.07,0.36,1.25,0.9c0.18,0.36,0.18,0.9,0,1.43c-0.36,0.54-0.72,1.07-1.43,1.43c-0.72,0.36-1.61,0.54-3.05,0.72
						c-1.25,0.18-2.33,0.54-3.4,1.07s-3.22,1.61-6.27,3.4c-3.76,2.15-6.27,3.94-7.52,5.02c-1.25,1.07-2.33,2.69-3.22,4.66
						c-0.9,1.79-1.61,3.4-2.15,4.84c-0.36,0.9-0.54,1.61-0.36,1.97c0.18,0.36,0.54,0.72,1.25,1.07c1.25,0.54,1.61,1.25,1.25,2.15
						c-1.07,2.15-5.55,3.05-13.61,3.05c-3.4,0-6.45-0.18-9.14-0.72c-2.33-0.36-3.22-1.25-2.51-2.51c0.54-0.9,1.61-1.61,3.22-1.97
						c1.25-0.36,2.15-0.72,2.69-1.07c1.07-1.07,2.69-3.58,4.48-7.52c0.54-1.25,0.9-2.15,0.9-2.87c0-0.72-0.36-1.61-0.9-2.69
						c-1.25-2.15-2.51-4.3-4.12-6.09c-0.72-0.72-1.43-1.25-2.33-1.61c-1.25-0.36-1.79-0.72-2.15-0.9c-0.36-0.36-0.36-0.9-0.18-1.43
						c0.54-1.07,1.79-1.79,4.12-2.15C690.86,214.38,694.27,214.2,699.1,214.2"/>
				</g>
			</g>
			<g>
				<path class="st3" d="M345.67,368.8c-2.69-0.18-4.3-1.97-4.84-3.76c-0.9-2.51-0.72-7.17,0.18-9.14l45.32-82.76
					c0.72-1.43,2.51-4.66,4.84-4.66c3.94,0,5.73-5.37-1.07-5.37h-36.36c-6.81,0-6.81,5.37-0.36,5.37c2.69,0,3.76,2.69,3.05,4.3
					l-7.34,13.79l-6.81,12.9l0,0l-11.64,21.68l-21.85,41.02c-2.33,3.4-7.17,4.12-6.99-2.33l11.82-91.9
					c0.54-2.87-0.18-4.84-3.22-4.84h-17.91c-2.15,0-3.4,1.07-4.48,2.51l-4.84,6.09l-5.19,6.81l0,0l-17.2,22.39l0,0l-3.22,4.12
					c0,0,0,0,0,0.18l-16.3,20.96l0,0l-3.58,4.66V331l-23.11,29.74c-4.3,5.73-25.26,8.6-29.2,8.6l77.92-150.12
					c0.72-1.79,3.58-4.3,6.63-4.3h16.48c7.88,0,7.52-5.37,0.72-5.37h-83.12c-6.81,0-6.99,5.37,0.72,5.37h15.41
					c4.3,0,5.73,2.69,4.66,5.02l-2.15,4.12l-91.9,177.16c-1.43,2.15-2.87,3.94-6.09,3.94H103.3c-7.88,0-7.52,5.37-0.72,5.37h124.14
					c3.58,0,3.76-0.54,5.37-3.22l18.45-32.96h94.05C351.4,374.17,349.79,368.98,345.67,368.8 M271.87,358.94
					c-0.9,5.37-6.27,9.14-12.9,10.93l-6.99,1.79l5.73-10.57c1.43-2.87-1.79-4.48-5.37-0.36c-24,28.84-31.71,42.63-68.79,42.63
					h-10.03c-3.05,0-6.27-1.25-4.3-4.12l13.08-25.08h49.8c6.81,0,5.02-5.19,1.07-5.37c-2.69-0.18-5.55-1.61-7.52-5.02
					c-0.54-0.9-1.79-4.48,0.18-7.34l18.99-25.97h31.71L271.87,358.94z M279.03,325.98h-30.99l39.05-53.02L279.03,325.98z"/>
				<path class="st3" d="M494.17,339.06c-18.27,22.75-28.66,30.63-47.29,30.63c-6.27,0-9.67-1.43-7.88-4.66l22.03-45.68h8.42
					c9.32,0,8.06,8.06,5.55,19.17c-0.54,1.61,0.72,1.61,1.79,0.36l20.96-37.98c1.07-2.33-1.61-2.87-2.87-1.07
					c-10.57,14.69-21.5,13.61-26.15,13.61h-3.76l23.47-46.22h9.49c12,0.72,17.56,11.29,14.15,36.36h5.02l17.38-35.11
					c1.43-3.05-1.61-5.73-4.84-5.73H412.13c-6.81,0-7.17,5.37-0.54,5.37c5.37,0,5.02,7.88,0.18,11.64l-49.98,40.66l10.03,48.01
					c0.72,3.58,3.05,5.37,6.99,5.37h97.27c3.94,0,5.73-1.61,6.99-3.4l17.56-31.17C502.77,334.94,497.22,335.3,494.17,339.06
					 M434.16,315.59l-2.87,5.37l-22.39,44.07c-2.87,5.19-8.78,3.94-9.67-0.36l-11.11-59.11l39.05-31.17
					c3.94-3.4,11.29-8.96,15.23-8.96h8.6c5.19,0,6.99,2.51,5.91,5.73l-1.43,3.05l0,0l-2.87,5.55c0,0,0,0,0,0.18L434.16,315.59
					L434.16,315.59"/>
				<path class="st3" d="M749.62,342.46c-0.54-2.69-1.43-1.07-3.05,2.33c0,0-21.14,39.77-49.8,61.44
					c-13.08,9.85-31.17,12.72-39.77,11.64c-29.92-3.94-36.19-27.23-38.33-36.54c-0.54-1.97-1.97-5.91-2.33-8.42
					c-0.9-4.84,12.54-6.27,16.3-3.76c5.73,3.94,18.81,7.88,29.2,7.88c9.67,0,29.2-7.17,34.93-24c5.73-17.38-8.78-36.54-15.23-43.17
					c-8.24-8.42-15.94-22.03-12.72-31.89c2.51-7.52,6.63-10.93,15.41-10.93c10.57,0,18.63,6.63,19.7,16.12c0,0.36,0,0.72,0,1.07
					c0.18,2.69,0.18,5.02,0,6.81s-0.36,3.05-0.36,3.05l0,0c-0.54,2.69-0.72,4.84-1.43,7.7c-0.36,2.15,2.51,3.58,3.58,1.97
					l17.91-32.96c1.25-2.51-1.61-3.22-3.76-2.33c-4.84,1.79-12.9,3.05-15.76,0.9c-6.81-5.02-12.9-8.24-22.21-8.24
					c-14.87,0-25.44,3.4-32.78,14.69v-0.18c0,0-0.18,0.18-0.18,0.36s-0.18,0.36-0.36,0.36c-0.36,0.54-0.9,1.43-1.25,2.33
					c-0.9,1.61-1.97,3.58-2.51,5.02c0,0.18-0.18,0.36-0.18,0.54l0.18-0.18c-0.36,1.07-0.72,2.15-1.07,3.22
					c-1.61,5.02-1.25,11.82,0.54,18.27c0.54,1.79,1.97,6.09,4.3,9.32c2.15,2.87,4.48,5.37,7.17,9.14l3.76,4.48
					c4.66,5.55,10.21,13.97,11.46,21.32c0,0.18,0,0.18,0,0.36c0,0.18,0,0.18,0,0.36c0.18,3.05-0.18,6.81-2.33,11.11
					c-0.36,0.72-0.72,1.25-1.07,1.97c-2.87,4.84-8.06,7.88-19.17,7.88c-16.3,0-19.53-16.48-14.87-33.68c0.9-3.4,0-4.84-1.61-2.15
					l-11.29,18.27l-3.22,5.19c0,0,0,0,0,0.18l-4.12,6.63c-6.81-16.12-18.27-36.01-24.36-43.17l0.18-0.36
					c15.05-0.9,37.44-15.41,41.02-28.48c6.27-22.57-15.05-30.99-26.51-30.99h-51.05c-6.81,0-7.34,5.37-0.72,5.37
					c3.58,0,6.63,3.22,5.02,6.45l-6.09,11.46l-8.6,15.94l0,0l-1.61,3.05l-14.87,27.77l0,0l-17.91,33.14
					c-2.15,2.33-4.66,2.87-9.14,2.87c-6.45,0-6.45,5.37,0.36,5.37h43.71c6.81,0,5.02-5.37,1.07-5.37c-2.33,0-4.84-4.48-3.22-7.17
					l22.39-43.53h2.33c9.85,0,12.36,16.84,14.15,35.11l0.54,4.66c0.54,5.37,1.07,10.39,1.79,15.05c0.36,1.79,0.54,3.4,0.9,5.19
					c0.18,0.36,0.18,0.9,0.18,1.25l1.07,5.02c0.36,1.61,1.07,3.4,1.61,5.02c8.96,23.29,36.19,40.84,62.7,39.77
					c24.36-0.9,44.96-14.51,55.35-23.29c13.97-11.46,34.57-35.83,42.99-53.38C747.65,349.45,750.16,345.33,749.62,342.46
					 M586.07,308.25c-3.4,2.87-8.78,6.27-9.85,5.19c-1.43-1.43-5.91-4.66-8.42-5.91l20.24-38.16c0.9-1.25,1.79-2.15,3.94-2.15
					c7.88,0,10.39,8.78,6.81,19.7C596.28,294.81,591.98,303.23,586.07,308.25"/>
			</g>
		</g>
	</g>
</g>
</svg>
